<?xml version="1.0" encoding="UTF-8"?><svg id="a" xmlns="http://www.w3.org/2000/svg" width="1080" height="1080" xmlns:xlink="http://www.w3.org/1999/xlink" viewBox="0 0 1080 1080"><defs><linearGradient id="b" x1="470.63" y1="552.1" x2="677.4" y2="267.56" gradientUnits="userSpaceOnUse"><stop offset="0" stop-color="#1b5ece"/><stop offset=".11" stop-color="#2f5ad3"/><stop offset=".34" stop-color="#644fe0"/><stop offset=".47" stop-color="#8749ea"/><stop offset=".78" stop-color="#ca41e6"/><stop offset="1" stop-color="#ff3ce3"/></linearGradient></defs><path d="M550.28,416.24h-41.6l39.88,73.46h-8.25c-4.55,0-8.87-2.03-11.77-5.53l-52.43-63.24c-2.46-2.97-6.13-4.69-9.99-4.69h-15.11c-5.93,0-10.74-4.81-10.74-10.74s4.81-10.74,10.74-10.74h15.11c3.86,0,7.53-1.72,9.99-4.69l52.43-63.24c2.91-3.5,7.22-5.53,11.77-5.53h8.25l-39.88,73.46h41.6c77.77,0,140.82-63.05,140.82-140.82,0-5.73-4.64-10.37-10.37-10.37h-129.89c-89.43,0-161.93,72.5-161.93,161.93s72.5,161.93,161.93,161.93h129.89c5.73,0,10.37-4.64,10.37-10.37,0-77.77-63.05-140.82-140.82-140.82" fill="url(#b)"/><path d="M329.2,617.36h-49.16c-14.51-.49-29.45,5.76-40.96,17.14-12.84,12.69-19.69,29.65-19.29,47.7v87.66c0,5.65,4.6,10.25,10.25,10.25h19.56c5.65,0,10.25-4.6,10.25-10.25v-41.04c0-.99.8-1.79,1.79-1.79h61.06c5.65,0,10.25-4.6,10.25-10.25v-16.77c0-5.65-4.6-10.25-10.25-10.25l-62.86.03v-4.33l-.03-.45c-.4-2.69-1.24-12.08,4.95-20.18,9.14-11.96,25.14-10.02,25.3-10l39.14.03c5.02,0,9.1-4.08,9.1-9.1v-19.3c0-5.02-4.08-9.1-9.1-9.1Z" fill="#1b5ece"/><rect x="364.81" y="617.47" width="39.12" height="162.63" rx="10.25" ry="10.25" fill="#1b5ece"/><path d="M693.16,641.59c-5.3-16.82-19.52-27.26-37.11-27.26s-31.58,10.45-36.88,27.26l-39.84,129.37c-.67,2.16-.28,4.45,1.07,6.27,1.34,1.82,3.41,2.87,5.68,2.87h26.2c3.14,0,5.93-2.11,6.79-5.12l7.62-26.78,58.98-.22,7.62,26.98c.85,3.02,3.65,5.14,6.79,5.14h26.19c2.26,0,4.33-1.04,5.68-2.86,1.34-1.82,1.73-4.11,1.07-6.27l-39.84-129.37ZM675.08,711.64h-37.82l16.81-58.3c.7-2.46,1.47-2.46,2.21-2.46.97,0,1.51,0,2.21,2.46l16.59,58.3Z" fill="#1b5ece"/><path d="M763.18,617.47h18.63c5.66,0,10.25,4.59,10.25,10.25v142.13c0,5.66-4.59,10.25-10.25,10.25h-18.63c-5.65,0-10.25-4.59-10.25-10.25v-142.13c0-5.65,4.59-10.25,10.25-10.25Z" fill="#1b5ece"/><path d="M831.36,617.47h18.63c5.66,0,10.25,4.59,10.25,10.25v142.13c0,5.66-4.59,10.25-10.25,10.25h-18.63c-5.65,0-10.25-4.59-10.25-10.25v-142.13c0-5.65,4.59-10.25,10.25-10.25Z" fill="#1b5ece"/><path d="M550.14,658.8h-25.47c-3.89,0-7.06,3.17-7.06,7.06v52.55c0,14.73-9.91,25.84-23.04,25.84-13.99,0-22.35-9.4-22.35-25.14v-53.25c0-3.89-3.17-7.06-7.06-7.06h-24.54c-3.89,0-7.06,3.17-7.06,7.06v54.41c0,38.91,20.71,61.23,56.81,61.23,11.24,0,20.59-3.15,27.48-9.21-1.6,17.53-11.79,27.82-27.95,27.82-8.1,0-15.27-2.51-20.72-7.27-2.39-2.09-5.87-2.42-8.66-.83l-20.16,11.52c-1.97,1.12-3.32,3.05-3.71,5.28-.38,2.2.22,4.44,1.67,6.13,12,14.06,30,21.5,52.05,21.5,39.97,0,66.82-27.98,66.82-69.61v-100.97c0-3.89-3.17-7.06-7.06-7.06Z" fill="#1b5ece"/></svg>