<?xml version="1.0" encoding="UTF-8"?><svg id="a" xmlns="http://www.w3.org/2000/svg" width="1080" height="500" xmlns:xlink="http://www.w3.org/1999/xlink" viewBox="0 0 1080 500"><defs><linearGradient id="b" x1="240.99" y1="344.51" x2="368.93" y2="168.44" gradientUnits="userSpaceOnUse"><stop offset="0" stop-color="#1b5ece"/><stop offset=".11" stop-color="#2f5ad3"/><stop offset=".34" stop-color="#644fe0"/><stop offset=".47" stop-color="#8749ea"/><stop offset=".78" stop-color="#ca41e6"/><stop offset="1" stop-color="#ff3ce3"/></linearGradient></defs><path d="M290.27,260.44h-25.74l24.68,45.46h-5.1c-2.82,0-5.49-1.25-7.28-3.42l-32.44-39.13c-1.52-1.84-3.79-2.9-6.18-2.9h-9.35c-3.67,0-6.65-2.98-6.65-6.65s2.98-6.65,6.65-6.65h9.35c2.39,0,4.66-1.06,6.18-2.9l32.44-39.13c1.8-2.17,4.47-3.42,7.28-3.42h5.1l-24.68,45.46h25.74c48.12,0,87.14-39.01,87.14-87.14,0-3.54-2.87-6.42-6.42-6.42h-80.37c-55.34,0-100.2,44.86-100.2,100.2s44.86,100.2,100.2,100.2h80.37c3.54,0,6.42-2.87,6.42-6.42,0-48.12-39.01-87.14-87.14-87.14" fill="url(#b)"/><path d="M479.93,187.64h-37.51c-11.07-.37-22.47,4.39-31.25,13.08-9.79,9.68-15.02,22.62-14.72,36.4v66.88c0,4.31,3.51,7.82,7.82,7.82h14.92c4.31,0,7.82-3.51,7.82-7.82v-31.32c0-.75.61-1.37,1.37-1.37h46.59c4.31,0,7.82-3.51,7.82-7.82v-12.79c0-4.31-3.51-7.82-7.82-7.82l-47.96.02v-3.3l-.03-.34c-.31-2.05-.95-9.22,3.78-15.4,6.98-9.12,19.18-7.65,19.3-7.63l29.87.02c3.83,0,6.94-3.11,6.94-6.94v-14.72c0-3.83-3.11-6.94-6.94-6.94Z" fill="#1b5ece"/><rect x="507.1" y="187.73" width="29.85" height="124.09" rx="7.82" ry="7.82" fill="#1b5ece"/><path d="M757.64,206.13c-4.04-12.83-14.89-20.8-28.32-20.8s-24.1,7.97-28.14,20.8l-30.4,98.71c-.51,1.65-.21,3.39.81,4.78,1.03,1.39,2.6,2.19,4.33,2.19h19.99c2.39,0,4.52-1.61,5.18-3.91l5.82-20.43,45-.17,5.82,20.59c.65,2.31,2.78,3.92,5.18,3.92h19.98c1.73,0,3.31-.8,4.33-2.19,1.03-1.39,1.32-3.13.81-4.78l-30.4-98.71ZM743.84,259.58h-28.86l12.83-44.48c.54-1.88,1.12-1.88,1.68-1.88.74,0,1.15,0,1.68,1.87l12.66,44.48Z" fill="#1b5ece"/><path d="M811.07,187.73h14.21c4.32,0,7.82,3.5,7.82,7.82v108.45c0,4.32-3.5,7.82-7.82,7.82h-14.21c-4.31,0-7.82-3.5-7.82-7.82v-108.45c0-4.31,3.5-7.82,7.82-7.82Z" fill="#1b5ece"/><path d="M863.09,187.73h14.21c4.32,0,7.82,3.5,7.82,7.82v108.45c0,4.32-3.5,7.82-7.82,7.82h-14.21c-4.31,0-7.82-3.5-7.82-7.82v-108.45c0-4.31,3.5-7.82,7.82-7.82Z" fill="#1b5ece"/><path d="M648.51,219.26h-19.44c-2.97,0-5.38,2.42-5.38,5.38v40.09c0,11.24-7.56,19.71-17.58,19.71-10.68,0-17.05-7.17-17.05-19.18v-40.63c0-2.97-2.42-5.38-5.38-5.38h-18.73c-2.97,0-5.38,2.42-5.38,5.38v41.52c0,29.69,15.8,46.72,43.35,46.72,8.58,0,15.71-2.41,20.97-7.02-1.22,13.37-9,21.23-21.32,21.23-6.18,0-11.65-1.92-15.81-5.54-1.83-1.59-4.48-1.85-6.61-.63l-15.38,8.79c-1.5.86-2.53,2.33-2.83,4.03-.29,1.68.17,3.38,1.27,4.68,9.16,10.73,22.89,16.4,39.71,16.4,30.5,0,50.98-21.35,50.98-53.12v-77.04c0-2.97-2.42-5.38-5.38-5.38Z" fill="#1b5ece"/></svg>