<?xml version="1.0" encoding="UTF-8"?><svg id="a" xmlns="http://www.w3.org/2000/svg" width="64" height="64" xmlns:xlink="http://www.w3.org/1999/xlink" viewBox="0 0 64 64"><defs><linearGradient id="b" x1="20.81" y1="55.65" x2="54.16" y2="9.75" gradientUnits="userSpaceOnUse"><stop offset="0" stop-color="#1b5ece"/><stop offset=".11" stop-color="#2f5ad3"/><stop offset=".34" stop-color="#644fe0"/><stop offset=".47" stop-color="#8749ea"/><stop offset=".78" stop-color="#ca41e6"/><stop offset="1" stop-color="#ff3ce3"/></linearGradient></defs><path d="M33.66,33.73h-6.71l6.43,11.85h-1.33c-.73,0-1.43-.33-1.9-.89l-8.46-10.2c-.4-.48-.99-.76-1.61-.76h-2.44c-.96,0-1.73-.78-1.73-1.73s.78-1.73,1.73-1.73h2.44c.62,0,1.21-.28,1.61-.76l8.46-10.2c.47-.56,1.16-.89,1.9-.89h1.33l-6.43,11.85h6.71c12.55,0,22.72-10.17,22.72-22.72,0-.92-.75-1.67-1.67-1.67h-20.95c-14.43,0-26.12,11.7-26.12,26.12s11.7,26.12,26.12,26.12h20.95c.92,0,1.67-.75,1.67-1.67,0-12.55-10.17-22.72-22.72-22.72" fill="url(#b)"/></svg>